<svg xmlns="http://www.w3.org/2000/svg" width="100%" viewBox="0 0 1254 1254" xml:space="preserve">
  <rect width="1254" height="1254" rx="282" ry="282" fill="#3F47F4"/>
<path fill="#FEFDFE" opacity="1.000000" stroke="none" 
	d="
M711.455566,921.682983 
	C697.212402,921.704590 683.423462,921.532410 669.634399,921.525818 
	C633.393188,921.508545 597.151917,921.563293 560.065308,921.600708 
	C558.139221,921.630188 557.058655,921.648315 555.738892,921.478516 
	C554.339111,921.411987 553.178467,921.533386 551.638306,921.621399 
	C550.506714,921.658630 549.754639,921.729248 549.002502,921.799866 
	C548.554199,921.723755 548.105835,921.647644 547.328247,921.675659 
	C537.801392,920.191589 535.150452,917.532043 536.123779,909.937561 
	C536.409729,907.706238 537.904358,905.392029 539.414307,903.593933 
	C549.249878,891.881409 559.313721,880.360596 569.161743,868.658325 
	C577.389221,858.881836 585.322266,848.857361 593.564819,839.093933 
	C612.316162,816.882935 631.186523,794.772400 649.992493,772.607483 
	C696.652771,717.613464 743.266357,662.579956 789.976257,607.628296 
	C810.145752,583.899963 830.488403,560.318787 850.793091,536.705688 
	C856.388794,530.198120 853.428833,520.437317 844.156067,517.490723 
	C806.714722,517.288696 770.028442,517.242371 733.342102,517.248047 
	C731.904480,517.248291 730.467041,517.745972 729.029480,518.011841 
	C715.726440,518.939819 705.000977,524.989807 696.625183,535.061707 
	C679.293823,555.902588 662.256775,576.987976 644.951599,597.850830 
	C639.567871,604.341431 632.321777,606.750427 623.230835,605.608521 
	C618.222107,602.513550 613.620789,599.980957 609.759399,596.602661 
	C606.211243,593.498413 603.459900,589.483337 600.233643,585.554199 
	C598.794312,583.712097 597.478943,582.185303 596.057373,580.346130 
	C585.036621,566.848206 573.637268,554.028015 563.344971,540.373413 
	C553.257202,526.990234 540.635132,519.005615 523.500488,517.366333 
	C487.275940,517.228394 451.505463,517.193481 415.735016,517.197571 
	C414.444946,517.197754 413.154968,517.581787 411.485535,517.742432 
	C408.632324,519.218384 405.512543,520.223694 403.809723,522.359009 
	C399.301208,528.012390 400.084167,532.380310 405.757080,539.100342 
	C428.521454,566.066589 451.252869,593.060547 474.033112,620.013306 
	C486.491791,634.753845 499.023590,649.432556 511.637390,664.412964 
	C513.655640,666.851685 515.559021,669.016479 517.594421,671.468262 
	C518.817566,672.952454 519.908691,674.149719 520.999756,675.346985 
	C526.661438,682.282104 531.846130,689.686279 538.096863,696.042053 
	C547.410461,705.512329 544.509216,722.865356 537.489929,730.515991 
	C529.681763,739.026367 522.643494,748.243042 514.790527,757.530151 
	C513.132690,759.212219 511.954376,760.516357 510.776093,761.820557 
	C510.776093,761.820557 510.872131,761.915710 510.592407,761.952637 
	C510.158966,762.306641 510.005280,762.623657 509.851562,762.940735 
	C509.534790,763.052185 509.296051,763.255371 508.781769,763.947266 
	C505.117126,768.360657 501.806122,772.376953 498.495087,776.393250 
	C498.495087,776.393250 498.386902,776.417297 498.135620,776.670654 
	C494.859955,780.442383 491.782776,783.916931 488.820221,787.486633 
	C475.730225,803.258972 462.673218,819.058655 449.604248,834.848511 
	C449.172760,835.255859 448.741272,835.663208 447.944397,836.498657 
	C446.613525,838.184509 445.647980,839.442200 444.682434,840.699951 
	C444.682465,840.699951 444.920959,840.927856 444.525330,840.970825 
	C440.622437,845.293945 437.115234,849.574097 433.332397,854.018921 
	C431.266418,856.416809 429.476044,858.649902 427.463776,860.976318 
	C426.994446,861.298828 426.853851,861.581116 426.526642,862.067688 
	C423.361572,865.764832 420.490021,869.310913 417.353760,873.020081 
	C415.669800,874.940552 414.250580,876.697937 412.552734,878.629639 
	C411.769928,879.505554 411.265717,880.207153 410.473755,881.073486 
	C408.467438,883.359619 406.748871,885.481079 404.794647,887.754395 
	C403.766815,888.960876 402.974609,890.015564 402.109589,891.080078 
	C402.036774,891.089966 402.058258,891.235413 401.913300,891.293213 
	C401.599548,891.493347 401.509918,891.674744 401.279083,892.052734 
	C400.993530,892.378601 400.928345,892.546997 400.564880,892.879150 
	C394.793457,897.574219 389.320374,902.105530 383.483398,906.726562 
	C379.395508,908.172363 375.671539,909.528381 371.947540,910.884460 
	C371.512024,910.919312 371.076477,910.954163 369.869568,910.993774 
	C363.416534,910.287659 357.734924,909.576782 351.765503,908.644409 
	C333.495728,902.811890 316.368988,895.409302 300.828674,884.582947 
	C296.372284,881.478271 291.667908,878.729492 286.932861,875.517944 
	C284.882782,873.749939 282.977081,872.281494 280.931061,870.510986 
	C279.235168,869.054077 277.679657,867.899231 275.988525,866.444458 
	C265.814484,855.435242 255.082428,845.285400 245.893417,833.891113 
	C230.533524,814.845032 219.169861,793.327637 211.199203,770.181152 
	C207.763016,760.202637 205.083847,749.928101 202.662750,739.646301 
	C200.672668,731.194885 199.572174,722.534058 198.062988,713.499878 
	C197.999313,706.021240 197.950043,699.008728 197.991150,691.537231 
	C198.403961,685.857300 198.632050,680.628418 199.074036,675.417725 
	C199.567154,669.603882 200.254593,663.806519 201.031067,657.635010 
	C201.837845,653.858215 202.470978,650.448364 203.425079,646.856323 
	C203.860565,645.460510 203.975098,644.246826 204.392639,642.864685 
	C204.752441,641.796997 204.809250,640.897766 205.029419,639.656738 
	C206.185501,635.900757 207.178192,632.486694 208.416626,628.897400 
	C208.759888,628.147278 208.857376,627.572388 209.121063,626.666016 
	C211.920776,618.911560 214.554260,611.488464 217.459656,603.905884 
	C217.872787,602.944641 218.014023,602.142761 218.470795,601.144287 
	C220.315750,597.746704 221.694046,594.462585 223.402557,591.360352 
	C228.768661,581.616699 234.258987,571.941528 239.899841,562.082642 
	C240.527496,561.210266 240.956528,560.495117 241.651031,559.547668 
	C243.989609,556.329285 246.062714,553.343140 248.424454,550.167847 
	C249.779404,548.483276 250.845734,546.987854 252.158478,545.300049 
	C258.599274,538.069824 264.793640,531.032043 271.276245,523.862427 
	C272.722748,522.519348 273.881012,521.308044 275.348328,519.955444 
	C279.268799,516.510193 282.880249,513.206177 286.809387,509.749451 
	C293.184692,505.011810 299.242218,500.426910 305.642761,495.726593 
	C309.659363,493.128906 313.332916,490.646637 317.353790,488.087708 
	C321.217560,485.965973 324.734009,483.920898 328.609924,481.786377 
	C331.070496,480.509735 333.171631,479.322540 335.272766,478.135315 
	C351.275146,472.402344 367.188110,466.397705 383.328064,461.082611 
	C389.040344,459.201508 395.280914,458.753815 401.329712,458.133667 
	C404.616089,457.796722 406.799377,457.315491 407.670715,453.515045 
	C417.260742,411.687805 437.165558,375.351044 466.421234,344.067963 
	C495.592468,312.875183 530.245239,290.035248 570.599731,275.937744 
	C574.473633,274.584412 578.416138,273.427338 582.945068,272.021820 
	C584.051331,271.607666 584.539307,271.350891 585.027283,271.094116 
	C585.198242,271.106323 585.369263,271.118530 585.773132,271.021729 
	C595.969177,268.648895 605.875183,266.070892 615.917725,264.243408 
	C621.612183,263.207153 627.527466,263.162476 633.348572,263.090210 
	C645.974854,262.933502 658.651062,262.356201 671.222168,263.204895 
	C691.746582,264.590485 711.845703,268.672699 731.854492,275.889282 
	C732.625061,276.062195 732.800598,276.060974 732.976135,276.059784 
	C737.743042,277.973114 742.509888,279.886414 747.637695,281.847839 
	C764.391296,291.254761 781.560669,299.506042 796.948914,310.297241 
	C811.105835,320.224976 823.346497,332.885223 836.842468,344.823364 
	C840.452698,348.891785 843.651855,352.478516 846.964111,356.382935 
	C849.043396,359.136139 851.009644,361.571686 853.053528,364.339111 
	C860.021851,375.472717 866.912415,386.274414 873.865295,397.438843 
	C877.207214,404.570740 880.486755,411.339874 883.792542,418.357422 
	C883.818726,418.605835 884.126526,418.999359 884.136230,419.323364 
	C884.685242,420.801392 885.224487,421.955444 885.792847,423.357513 
	C885.821899,423.605560 886.126160,424.001678 886.130371,424.324585 
	C886.649353,425.813446 887.164246,426.979340 887.711548,428.464722 
	C888.099976,429.542938 888.455872,430.301666 888.849731,431.456696 
	C890.840759,437.940918 892.793884,444.028778 894.746826,450.447479 
	C894.907898,451.186584 895.069275,451.594879 895.197021,452.283875 
	C895.367310,453.076172 895.571228,453.587738 895.761475,454.432190 
	C895.904419,455.177856 896.061035,455.590607 896.171265,456.374695 
	C896.648376,458.543671 897.171997,460.341339 897.674988,462.464294 
	C897.807739,463.192963 897.961121,463.596313 898.069824,464.427734 
	C898.016479,465.686096 897.836548,466.557434 898.024353,467.340668 
	C901.987427,483.872284 902.691895,500.724945 903.067688,517.614258 
	C903.084839,518.382996 903.391907,519.145325 903.446655,519.388916 
	C911.369690,520.376038 918.967163,520.885559 926.378296,522.342529 
	C939.340088,524.890747 951.284058,530.320251 962.926697,536.449158 
	C965.436768,537.770508 968.458313,538.214233 970.795837,539.746338 
	C974.008301,541.852051 976.793396,544.609619 979.949951,547.342285 
	C981.012024,548.175232 981.885803,548.753723 982.785278,549.333374 
	C982.810913,549.334595 982.762573,549.342285 982.762573,549.342285 
	C1001.895752,564.972717 1018.051697,583.213806 1030.382446,604.652588 
	C1042.064331,624.963440 1050.308960,646.499023 1054.166992,669.810303 
	C1057.567383,690.356567 1059.232178,710.858582 1057.044922,731.577759 
	C1051.125610,787.651794 1029.456909,835.931519 985.533752,872.589783 
	C970.777405,884.905396 952.992371,891.965881 934.230225,895.936279 
	C926.072083,897.662720 917.637207,898.226562 909.293335,898.864380 
	C905.570251,899.148987 901.761475,898.313232 897.407837,897.699097 
	C895.870789,897.212036 894.917419,897.011780 893.964111,896.811523 
	C892.618164,896.463806 891.272217,896.116089 889.248779,895.541748 
	C887.717590,895.176514 886.863831,895.037842 886.010071,894.899231 
	C886.010071,894.899231 885.614929,894.620728 885.088562,894.406494 
	C882.751465,893.709656 880.940735,893.227051 878.880981,892.530029 
	C877.792419,892.073242 876.952881,891.830750 875.853088,891.383118 
	C871.084595,889.058838 866.576355,886.939697 861.848206,884.567993 
	C852.272278,876.636475 841.729919,870.012756 833.783997,861.079468 
	C810.535278,834.942139 788.160095,808.018860 765.754456,781.143494 
	C748.723511,760.715149 732.170410,739.888489 715.377502,719.261108 
	C715.267273,719.125732 714.773743,719.302368 714.521362,719.327209 
	C714.890015,728.025452 718.953247,735.058594 724.391541,741.521545 
	C758.935486,782.573853 793.353882,823.732483 828.051880,864.654053 
	C836.454468,874.563843 845.771484,883.690796 858.072021,889.559631 
	C863.868530,892.396118 869.453491,894.970215 875.331421,897.755249 
	C877.807922,898.635315 879.991394,899.304443 882.174927,899.973511 
	C896.732483,905.032593 911.533386,906.420288 926.727600,903.269287 
	C930.462708,902.494690 934.351318,902.460449 938.262512,902.566956 
	C915.220703,913.027466 891.354492,920.202209 865.448364,921.392639 
	C829.972351,921.543640 794.942444,921.570435 759.456299,921.714355 
	C743.303284,921.742432 727.606445,921.653503 711.455566,921.682983 
z"/>
</svg>
